G04 (created by PCBNEW-RS274X (2012-apr-16-27)-stable) date Sat 11 May 2013 13:06:01 BST*
G01*
G70*
G90*
%MOIN*%
G04 Gerber Fmt 3.4, Leading zero omitted, Abs format*
%FSLAX34Y34*%
G04 APERTURE LIST*
%ADD10C,0.006000*%
%ADD11C,0.012000*%
%ADD12C,0.015000*%
%ADD13C,0.005000*%
%ADD14C,0.010000*%
G04 APERTURE END LIST*
G54D10*
G54D11*
X07655Y-05967D02*
X07631Y-06000D01*
X07560Y-06033D01*
X07512Y-06033D01*
X07440Y-06000D01*
X07393Y-05933D01*
X07369Y-05867D01*
X07345Y-05733D01*
X07345Y-05633D01*
X07369Y-05500D01*
X07393Y-05433D01*
X07440Y-05367D01*
X07512Y-05333D01*
X07560Y-05333D01*
X07631Y-05367D01*
X07655Y-05400D01*
G54D12*
X05000Y-09000D02*
X05000Y-05000D01*
X13500Y-09000D02*
X05000Y-09000D01*
X13500Y-05000D02*
X13500Y-09000D01*
X05000Y-05000D02*
X13500Y-05000D01*
G54D13*
X09750Y-07900D02*
X07750Y-07900D01*
X07750Y-07900D02*
X07750Y-06100D01*
X07750Y-06100D02*
X09750Y-06100D01*
X09750Y-06100D02*
X09750Y-07900D01*
X09750Y-07300D02*
X09550Y-07300D01*
X09550Y-07300D02*
X09550Y-06800D01*
X09550Y-06800D02*
X09750Y-06800D01*
X08121Y-07048D02*
X08312Y-07048D01*
X08083Y-07162D02*
X08216Y-06762D01*
X08350Y-07162D01*
X08426Y-06762D02*
X08655Y-06762D01*
X08540Y-07162D02*
X08540Y-06762D01*
X08769Y-06800D02*
X08788Y-06781D01*
X08826Y-06762D01*
X08922Y-06762D01*
X08960Y-06781D01*
X08979Y-06800D01*
X08998Y-06838D01*
X08998Y-06876D01*
X08979Y-06933D01*
X08750Y-07162D01*
X08998Y-07162D01*
X09360Y-06762D02*
X09169Y-06762D01*
X09150Y-06952D01*
X09169Y-06933D01*
X09207Y-06914D01*
X09303Y-06914D01*
X09341Y-06933D01*
X09360Y-06952D01*
X09379Y-06990D01*
X09379Y-07086D01*
X09360Y-07124D01*
X09341Y-07143D01*
X09303Y-07162D01*
X09207Y-07162D01*
X09169Y-07143D01*
X09150Y-07124D01*
G54D11*
X05865Y-07243D02*
X05579Y-07243D01*
X05579Y-06643D01*
X06065Y-06929D02*
X06265Y-06929D01*
X06351Y-07243D02*
X06065Y-07243D01*
X06065Y-06643D01*
X06351Y-06643D01*
X06608Y-07243D02*
X06608Y-06643D01*
X06751Y-06643D01*
X06836Y-06671D01*
X06894Y-06729D01*
X06922Y-06786D01*
X06951Y-06900D01*
X06951Y-06986D01*
X06922Y-07100D01*
X06894Y-07157D01*
X06836Y-07214D01*
X06751Y-07243D01*
X06608Y-07243D01*
G54D14*
X09898Y-07412D02*
X09898Y-07012D01*
X09993Y-07012D01*
X10051Y-07031D01*
X10089Y-07069D01*
X10108Y-07107D01*
X10127Y-07183D01*
X10127Y-07240D01*
X10108Y-07317D01*
X10089Y-07355D01*
X10051Y-07393D01*
X09993Y-07412D01*
X09898Y-07412D01*
X10298Y-07260D02*
X10603Y-07260D01*
X10451Y-07412D02*
X10451Y-07107D01*
X10108Y-06531D02*
X10070Y-06512D01*
X10013Y-06512D01*
X09955Y-06531D01*
X09917Y-06569D01*
X09898Y-06607D01*
X09879Y-06683D01*
X09879Y-06740D01*
X09898Y-06817D01*
X09917Y-06855D01*
X09955Y-06893D01*
X10013Y-06912D01*
X10051Y-06912D01*
X10108Y-06893D01*
X10127Y-06874D01*
X10127Y-06740D01*
X10051Y-06740D01*
X10298Y-06760D02*
X10603Y-06760D01*
M02*
