G04 (created by PCBNEW-RS274X (2012-apr-16-27)-stable) date Sat 11 May 2013 13:06:01 BST*
G01*
G70*
G90*
%MOIN*%
G04 Gerber Fmt 3.4, Leading zero omitted, Abs format*
%FSLAX34Y34*%
G04 APERTURE LIST*
%ADD10C,0.006000*%
%ADD11C,0.005000*%
%ADD12C,0.003000*%
G04 APERTURE END LIST*
G54D10*
G54D11*
X09950Y-07500D02*
X09050Y-07500D01*
X09050Y-07500D02*
X09050Y-06850D01*
X09950Y-06150D02*
X09950Y-05500D01*
X09950Y-05500D02*
X09050Y-05500D01*
X09050Y-05500D02*
X09050Y-06150D01*
X09950Y-06850D02*
X09950Y-07500D01*
X08200Y-07800D02*
X08500Y-07600D01*
X07500Y-07800D02*
X08525Y-07800D01*
X08525Y-07800D02*
X08525Y-07200D01*
X08525Y-07200D02*
X07500Y-07200D01*
X07500Y-07200D02*
X07500Y-07800D01*
X08850Y-05600D02*
X08849Y-05609D01*
X08846Y-05619D01*
X08841Y-05627D01*
X08835Y-05635D01*
X08827Y-05641D01*
X08819Y-05646D01*
X08810Y-05648D01*
X08800Y-05649D01*
X08791Y-05649D01*
X08782Y-05646D01*
X08773Y-05641D01*
X08766Y-05635D01*
X08759Y-05628D01*
X08755Y-05619D01*
X08752Y-05610D01*
X08751Y-05600D01*
X08751Y-05591D01*
X08754Y-05582D01*
X08758Y-05573D01*
X08765Y-05566D01*
X08772Y-05559D01*
X08780Y-05555D01*
X08790Y-05552D01*
X08799Y-05551D01*
X08808Y-05551D01*
X08818Y-05554D01*
X08826Y-05558D01*
X08834Y-05564D01*
X08840Y-05572D01*
X08845Y-05580D01*
X08848Y-05589D01*
X08849Y-05599D01*
X08850Y-05600D01*
X08800Y-06050D02*
X08800Y-05650D01*
X08800Y-05650D02*
X08200Y-05650D01*
X08200Y-05650D02*
X08200Y-06050D01*
X08200Y-06450D02*
X08200Y-06850D01*
X08200Y-06850D02*
X08800Y-06850D01*
X08800Y-06850D02*
X08800Y-06450D01*
X09593Y-06450D02*
X09607Y-06436D01*
X09621Y-06393D01*
X09621Y-06364D01*
X09607Y-06321D01*
X09579Y-06293D01*
X09550Y-06278D01*
X09493Y-06264D01*
X09450Y-06264D01*
X09393Y-06278D01*
X09364Y-06293D01*
X09336Y-06321D01*
X09321Y-06364D01*
X09321Y-06393D01*
X09336Y-06436D01*
X09350Y-06450D01*
X09621Y-06736D02*
X09621Y-06564D01*
X09621Y-06650D02*
X09321Y-06650D01*
X09364Y-06621D01*
X09393Y-06593D01*
X09407Y-06564D01*
G54D12*
X08232Y-07570D02*
X08204Y-07579D01*
X08157Y-07579D01*
X08139Y-07570D01*
X08129Y-07560D01*
X08120Y-07542D01*
X08120Y-07523D01*
X08129Y-07504D01*
X08139Y-07495D01*
X08157Y-07485D01*
X08195Y-07476D01*
X08214Y-07467D01*
X08223Y-07457D01*
X08232Y-07439D01*
X08232Y-07420D01*
X08223Y-07401D01*
X08214Y-07392D01*
X08195Y-07382D01*
X08148Y-07382D01*
X08120Y-07392D01*
X07923Y-07560D02*
X07932Y-07570D01*
X07960Y-07579D01*
X07979Y-07579D01*
X08007Y-07570D01*
X08026Y-07551D01*
X08035Y-07532D01*
X08044Y-07495D01*
X08044Y-07467D01*
X08035Y-07429D01*
X08026Y-07410D01*
X08007Y-07392D01*
X07979Y-07382D01*
X07960Y-07382D01*
X07932Y-07392D01*
X07923Y-07401D01*
X07838Y-07579D02*
X07838Y-07382D01*
X07838Y-07476D02*
X07726Y-07476D01*
X07726Y-07579D02*
X07726Y-07382D01*
G54D11*
X08601Y-06208D02*
X08482Y-06125D01*
X08601Y-06066D02*
X08351Y-06066D01*
X08351Y-06161D01*
X08363Y-06185D01*
X08375Y-06196D01*
X08399Y-06208D01*
X08435Y-06208D01*
X08458Y-06196D01*
X08470Y-06185D01*
X08482Y-06161D01*
X08482Y-06066D01*
X08601Y-06446D02*
X08601Y-06304D01*
X08601Y-06375D02*
X08351Y-06375D01*
X08387Y-06351D01*
X08411Y-06327D01*
X08423Y-06304D01*
M02*
