G04 (created by PCBNEW-RS274X (2012-apr-16-27)-stable) date Sat 11 May 2013 13:06:01 BST*
G01*
G70*
G90*
%MOIN*%
G04 Gerber Fmt 3.4, Leading zero omitted, Abs format*
%FSLAX34Y34*%
G04 APERTURE LIST*
%ADD10C,0.006000*%
%ADD11R,0.080000X0.060000*%
%ADD12R,0.027600X0.039400*%
%ADD13R,0.200000X0.100000*%
%ADD14R,0.055000X0.035000*%
%ADD15R,0.250000X0.100000*%
%ADD16C,0.040000*%
%ADD17C,0.008000*%
G04 APERTURE END LIST*
G54D10*
G54D11*
X09500Y-07150D03*
X09500Y-05850D03*
G54D12*
X08000Y-07000D03*
X07625Y-08000D03*
X08375Y-08000D03*
G54D13*
X06250Y-08000D03*
X06250Y-06000D03*
G54D14*
X08500Y-05875D03*
X08500Y-06625D03*
G54D15*
X11750Y-06000D03*
X11750Y-08000D03*
G54D16*
X09500Y-07750D03*
X07750Y-06250D03*
X10250Y-08000D03*
X07750Y-08500D03*
X09500Y-06500D03*
X10250Y-06000D03*
X07750Y-05750D03*
G54D17*
X09500Y-07150D02*
X09500Y-07750D01*
X07750Y-06250D02*
X06500Y-06250D01*
X06500Y-06250D02*
X06250Y-06000D01*
X08625Y-08250D02*
X08375Y-08000D01*
X12500Y-08000D02*
X12250Y-08250D01*
X12250Y-08250D02*
X10250Y-08250D01*
X10250Y-08250D02*
X10250Y-08000D01*
X10250Y-08250D02*
X08625Y-08250D01*
X07750Y-08500D02*
X06750Y-08500D01*
X06750Y-08500D02*
X06250Y-08000D01*
X08000Y-07000D02*
X08375Y-06625D01*
X08375Y-06625D02*
X09375Y-06625D01*
X09375Y-06625D02*
X09500Y-06500D01*
X08425Y-05750D02*
X07750Y-05750D01*
X10250Y-05850D02*
X10250Y-06000D01*
X08500Y-05825D02*
X08425Y-05750D01*
X08525Y-05850D02*
X08500Y-05825D01*
X12350Y-05850D02*
X10250Y-05850D01*
X12500Y-06000D02*
X12350Y-05850D01*
X09500Y-05850D02*
X08525Y-05850D01*
X10250Y-05850D02*
X09500Y-05850D01*
M02*
